<svg width="166" height="46" viewBox="0 0 166 46" fill="none" xmlns="http://www.w3.org/2000/svg">
<rect width="46" height="46" rx="8" fill="#072E24"/>
<path opacity="0.5" d="M21.8093 19.4291L21.4822 15.7299C21.4822 14.8997 22.1618 14.2266 23.0001 14.2266C23.8383 14.2266 24.518 14.8997 24.518 15.7299L24.1908 19.4291C24.1908 20.0804 23.6577 20.6084 23.0001 20.6084C22.3414 20.6084 21.8093 20.0804 21.8093 19.4291Z" fill="#0D9585"/>
<path d="M21.8698 31.3981C21.8115 31.3403 21.5647 31.1243 21.3598 30.9214C20.0766 29.7377 17.9782 26.6472 17.336 25.0305C17.2335 24.7851 17.0154 24.1644 17 23.8316C17 23.5142 17.0738 23.2109 17.2192 22.9218C17.423 22.5607 17.7446 22.2727 18.1236 22.1135C18.3857 22.012 19.1733 21.8527 19.1876 21.8527C20.0479 21.6946 21.4469 21.6084 22.9934 21.6084C24.465 21.6084 25.8067 21.6946 26.6813 21.8244C26.6967 21.8386 27.6738 21.9978 28.0086 22.1713C28.6211 22.4887 29 23.1095 29 23.7738V23.8316C28.9857 24.2647 28.6057 25.1745 28.5924 25.1745C27.9502 26.705 25.9532 29.7225 24.6258 30.9355C24.6258 30.9355 24.2844 31.2781 24.0718 31.4264C23.7656 31.6577 23.3866 31.7734 23.0077 31.7734C22.5847 31.7734 22.1915 31.6435 21.8698 31.3981Z" fill="#0D9585"/>
<path d="M61.432 24.24C60.232 24.24 59.128 24.024 58.12 23.592C57.128 23.144 56.264 22.52 55.528 21.72C54.792 20.904 54.216 19.952 53.8 18.864C53.4 17.776 53.2 16.584 53.2 15.288C53.2 13.576 53.552 12.056 54.256 10.728C54.96 9.4 55.928 8.36 57.16 7.608C58.408 6.856 59.824 6.48 61.408 6.48C63.024 6.48 64.448 6.856 65.68 7.608C66.928 8.36 67.904 9.4 68.608 10.728C69.312 12.056 69.664 13.584 69.664 15.312C69.664 16.608 69.456 17.8 69.04 18.888C68.64 19.976 68.072 20.92 67.336 21.72C66.6 22.52 65.728 23.144 64.72 23.592C63.712 24.024 62.616 24.24 61.432 24.24ZM61.408 22.464C62.64 22.464 63.72 22.16 64.648 21.552C65.592 20.928 66.328 20.072 66.856 18.984C67.384 17.896 67.648 16.656 67.648 15.264C67.648 13.888 67.384 12.672 66.856 11.616C66.344 10.56 65.616 9.736 64.672 9.144C63.744 8.552 62.656 8.256 61.408 8.256C60.16 8.256 59.072 8.552 58.144 9.144C57.216 9.736 56.496 10.56 55.984 11.616C55.472 12.656 55.216 13.872 55.216 15.264C55.216 16.672 55.472 17.92 55.984 19.008C56.512 20.08 57.24 20.928 58.168 21.552C59.096 22.16 60.176 22.464 61.408 22.464ZM72.7872 24V11.76H74.5872V14.64H74.7072V24H72.7872ZM81.0432 24V15.888C81.0432 14.96 80.8352 14.28 80.4192 13.848C80.0032 13.416 79.4032 13.2 78.6192 13.2C77.8832 13.2 77.2192 13.376 76.6272 13.728C76.0352 14.08 75.5632 14.568 75.2112 15.192C74.8752 15.816 74.7072 16.544 74.7072 17.376L74.3952 14.472C74.8112 13.56 75.4352 12.84 76.2672 12.312C77.0992 11.784 78.0032 11.52 78.9792 11.52C80.1632 11.52 81.1232 11.872 81.8592 12.576C82.5952 13.264 82.9632 14.2 82.9632 15.384V24H81.0432ZM89.2992 24V15.888C89.2992 14.96 89.0912 14.28 88.6752 13.848C88.2592 13.416 87.6592 13.2 86.8752 13.2C86.1392 13.2 85.4752 13.376 84.8832 13.728C84.2912 14.08 83.8192 14.568 83.4672 15.192C83.1312 15.816 82.9632 16.544 82.9632 17.376L82.4832 14.472C82.8992 13.56 83.5392 12.84 84.4032 12.312C85.2672 11.784 86.1952 11.52 87.1872 11.52C88.3712 11.52 89.3392 11.872 90.0912 12.576C90.8432 13.264 91.2192 14.2 91.2192 15.384V24H89.2992ZM94.9122 24V11.76H96.7122V14.64H96.8322V24H94.9122ZM103.672 24V15.984C103.672 15.056 103.44 14.36 102.976 13.896C102.512 13.432 101.824 13.2 100.912 13.2C100.112 13.2 99.4002 13.376 98.7762 13.728C98.1682 14.08 97.6882 14.568 97.3362 15.192C97.0002 15.816 96.8322 16.544 96.8322 17.376L96.5202 14.472C96.9362 13.56 97.5682 12.84 98.4162 12.312C99.2802 11.784 100.256 11.52 101.344 11.52C102.624 11.52 103.648 11.888 104.416 12.624C105.2 13.344 105.592 14.296 105.592 15.48V24H103.672ZM109.279 24V11.76H111.199V24H109.279ZM109.135 8.976V6.72H111.343V8.976H109.135ZM115.189 24V6.72H117.157V24H115.189ZM116.197 16.584V14.856H125.509V16.584H116.197ZM116.197 8.448V6.72H126.181V8.448H116.197ZM129.483 24V6.72H131.403V24H129.483ZM140.336 24.24C139.136 24.24 138.08 23.96 137.168 23.4C136.256 22.84 135.544 22.08 135.032 21.12C134.536 20.144 134.288 19.048 134.288 17.832C134.288 16.6 134.544 15.512 135.056 14.568C135.568 13.624 136.272 12.88 137.168 12.336C138.08 11.792 139.136 11.52 140.336 11.52C141.552 11.52 142.608 11.792 143.504 12.336C144.416 12.88 145.12 13.624 145.616 14.568C146.128 15.512 146.384 16.6 146.384 17.832C146.384 19.048 146.128 20.144 145.616 21.12C145.12 22.08 144.416 22.84 143.504 23.4C142.608 23.96 141.552 24.24 140.336 24.24ZM140.336 22.608C141.168 22.608 141.888 22.408 142.496 22.008C143.104 21.592 143.576 21.024 143.912 20.304C144.248 19.584 144.416 18.752 144.416 17.808C144.416 16.4 144.04 15.272 143.288 14.424C142.552 13.576 141.568 13.152 140.336 13.152C139.12 13.152 138.136 13.576 137.384 14.424C136.632 15.272 136.256 16.4 136.256 17.808C136.256 18.752 136.424 19.584 136.76 20.304C137.096 21.024 137.568 21.592 138.176 22.008C138.8 22.408 139.52 22.608 140.336 22.608ZM151.525 24L147.781 11.76H149.725L152.605 22.248H152.125L155.581 11.76H157.141L160.621 22.248H160.141L162.997 11.76H164.845L161.101 24H159.541L156.085 13.752H156.589L153.085 24H151.525Z" fill="white"/>
<path d="M55.768 42L52.432 33.36H53.488L56.584 41.568H56.224L59.308 33.36H60.304L56.968 42H55.768ZM61.5147 42V35.88H62.4747V42H61.5147ZM61.4427 34.488V33.36H62.5467V34.488H61.4427ZM68.8261 42V40.572L68.9461 40.608C68.7941 41.072 68.5141 41.44 68.1061 41.712C67.7061 41.984 67.2261 42.12 66.6661 42.12C66.1141 42.12 65.6301 41.988 65.2141 41.724C64.8061 41.46 64.4861 41.092 64.2541 40.62C64.0301 40.148 63.9181 39.596 63.9181 38.964C63.9181 38.324 64.0341 37.764 64.2661 37.284C64.4981 36.804 64.8221 36.432 65.2381 36.168C65.6541 35.904 66.1421 35.772 66.7021 35.772C67.2781 35.772 67.7621 35.912 68.1541 36.192C68.5461 36.472 68.8141 36.868 68.9581 37.38L68.7661 37.404V33.36H69.7261V42H68.8261ZM66.8461 41.28C67.4621 41.28 67.9421 41.072 68.2861 40.656C68.6381 40.232 68.8141 39.656 68.8141 38.928C68.8141 38.216 68.6381 37.652 68.2861 37.236C67.9341 36.82 67.4541 36.612 66.8461 36.612C66.2381 36.612 65.7621 36.82 65.4181 37.236C65.0741 37.652 64.9021 38.228 64.9021 38.964C64.9021 39.684 65.0741 40.252 65.4181 40.668C65.7621 41.076 66.2381 41.28 66.8461 41.28ZM74.1594 42.12C73.5754 42.12 73.0594 41.984 72.6114 41.712C72.1634 41.432 71.8114 41.052 71.5554 40.572C71.2994 40.092 71.1714 39.54 71.1714 38.916C71.1714 38.292 71.2954 37.744 71.5434 37.272C71.7994 36.792 72.1554 36.42 72.6114 36.156C73.0674 35.892 73.5914 35.76 74.1834 35.76C74.7514 35.76 75.2434 35.884 75.6594 36.132C76.0834 36.38 76.4074 36.728 76.6314 37.176C76.8634 37.624 76.9794 38.152 76.9794 38.76C76.9794 38.84 76.9754 38.916 76.9674 38.988C76.9674 39.06 76.9594 39.14 76.9434 39.228H71.8914V38.424H76.3554L76.0434 38.868C76.0434 38.132 75.8794 37.568 75.5514 37.176C75.2314 36.776 74.7754 36.576 74.1834 36.576C73.5754 36.576 73.0834 36.788 72.7074 37.212C72.3394 37.628 72.1554 38.192 72.1554 38.904C72.1554 39.632 72.3394 40.216 72.7074 40.656C73.0834 41.088 73.5834 41.304 74.2074 41.304C74.5994 41.304 74.9434 41.22 75.2394 41.052C75.5354 40.876 75.7514 40.628 75.8874 40.308H76.7994C76.5994 40.868 76.2634 41.312 75.7914 41.64C75.3274 41.96 74.7834 42.12 74.1594 42.12ZM80.9688 42.12C80.3688 42.12 79.8408 41.98 79.3848 41.7C78.9288 41.42 78.5728 41.04 78.3168 40.56C78.0688 40.072 77.9448 39.524 77.9448 38.916C77.9448 38.3 78.0728 37.756 78.3288 37.284C78.5848 36.812 78.9368 36.44 79.3848 36.168C79.8408 35.896 80.3688 35.76 80.9688 35.76C81.5768 35.76 82.1048 35.896 82.5528 36.168C83.0088 36.44 83.3608 36.812 83.6088 37.284C83.8648 37.756 83.9928 38.3 83.9928 38.916C83.9928 39.524 83.8648 40.072 83.6088 40.56C83.3608 41.04 83.0088 41.42 82.5528 41.7C82.1048 41.98 81.5768 42.12 80.9688 42.12ZM80.9688 41.304C81.3848 41.304 81.7448 41.204 82.0488 41.004C82.3528 40.796 82.5888 40.512 82.7568 40.152C82.9248 39.792 83.0088 39.376 83.0088 38.904C83.0088 38.2 82.8208 37.636 82.4448 37.212C82.0768 36.788 81.5848 36.576 80.9688 36.576C80.3608 36.576 79.8688 36.788 79.4928 37.212C79.1168 37.636 78.9288 38.2 78.9288 38.904C78.9288 39.376 79.0128 39.792 79.1808 40.152C79.3488 40.512 79.5848 40.796 79.8888 41.004C80.2008 41.204 80.5608 41.304 80.9688 41.304ZM88.495 42V41.136H90.811C91.531 41.136 92.151 40.992 92.671 40.704C93.191 40.408 93.591 39.996 93.871 39.468C94.151 38.94 94.291 38.328 94.291 37.632C94.291 36.944 94.151 36.344 93.871 35.832C93.591 35.32 93.191 34.924 92.671 34.644C92.159 34.364 91.539 34.224 90.811 34.224H88.495V33.36H90.811C91.715 33.36 92.503 33.54 93.175 33.9C93.847 34.252 94.367 34.752 94.735 35.4C95.111 36.04 95.299 36.792 95.299 37.656C95.299 38.52 95.111 39.28 94.735 39.936C94.359 40.584 93.835 41.092 93.163 41.46C92.499 41.82 91.719 42 90.823 42H88.495ZM87.907 42V33.36H88.891V42H87.907ZM99.3556 42.12C98.7556 42.12 98.2276 41.98 97.7716 41.7C97.3156 41.42 96.9596 41.04 96.7036 40.56C96.4556 40.072 96.3316 39.524 96.3316 38.916C96.3316 38.3 96.4596 37.756 96.7156 37.284C96.9716 36.812 97.3236 36.44 97.7716 36.168C98.2276 35.896 98.7556 35.76 99.3556 35.76C99.9636 35.76 100.492 35.896 100.94 36.168C101.396 36.44 101.748 36.812 101.996 37.284C102.252 37.756 102.38 38.3 102.38 38.916C102.38 39.524 102.252 40.072 101.996 40.56C101.748 41.04 101.396 41.42 100.94 41.7C100.492 41.98 99.9636 42.12 99.3556 42.12ZM99.3556 41.304C99.7716 41.304 100.132 41.204 100.436 41.004C100.74 40.796 100.976 40.512 101.144 40.152C101.312 39.792 101.396 39.376 101.396 38.904C101.396 38.2 101.208 37.636 100.832 37.212C100.464 36.788 99.9716 36.576 99.3556 36.576C98.7476 36.576 98.2556 36.788 97.8796 37.212C97.5036 37.636 97.3156 38.2 97.3156 38.904C97.3156 39.376 97.3996 39.792 97.5676 40.152C97.7356 40.512 97.9716 40.796 98.2756 41.004C98.5876 41.204 98.9476 41.304 99.3556 41.304ZM104.95 42L103.078 35.88H104.05L105.49 41.124H105.25L106.978 35.88H107.758L109.498 41.124H109.258L110.686 35.88H111.61L109.738 42H108.958L107.23 36.876H107.482L105.73 42H104.95ZM112.901 42V35.88H113.801V37.32H113.861V42H112.901ZM117.281 42V37.992C117.281 37.528 117.165 37.18 116.933 36.948C116.701 36.716 116.357 36.6 115.901 36.6C115.501 36.6 115.145 36.688 114.833 36.864C114.529 37.04 114.289 37.284 114.113 37.596C113.945 37.908 113.861 38.272 113.861 38.688L113.705 37.236C113.913 36.78 114.229 36.42 114.653 36.156C115.085 35.892 115.573 35.76 116.117 35.76C116.757 35.76 117.269 35.944 117.653 36.312C118.045 36.672 118.241 37.148 118.241 37.74V42H117.281ZM120.085 42V33.36H121.045V42H120.085ZM125.512 42.12C124.912 42.12 124.384 41.98 123.928 41.7C123.472 41.42 123.116 41.04 122.86 40.56C122.612 40.072 122.488 39.524 122.488 38.916C122.488 38.3 122.616 37.756 122.872 37.284C123.128 36.812 123.48 36.44 123.928 36.168C124.384 35.896 124.912 35.76 125.512 35.76C126.12 35.76 126.648 35.896 127.096 36.168C127.552 36.44 127.904 36.812 128.152 37.284C128.408 37.756 128.536 38.3 128.536 38.916C128.536 39.524 128.408 40.072 128.152 40.56C127.904 41.04 127.552 41.42 127.096 41.7C126.648 41.98 126.12 42.12 125.512 42.12ZM125.512 41.304C125.928 41.304 126.288 41.204 126.592 41.004C126.896 40.796 127.132 40.512 127.3 40.152C127.468 39.792 127.552 39.376 127.552 38.904C127.552 38.2 127.364 37.636 126.988 37.212C126.62 36.788 126.128 36.576 125.512 36.576C124.904 36.576 124.412 36.788 124.036 37.212C123.66 37.636 123.472 38.2 123.472 38.904C123.472 39.376 123.556 39.792 123.724 40.152C123.892 40.512 124.128 40.796 124.432 41.004C124.744 41.204 125.104 41.304 125.512 41.304ZM133.732 42C133.7 41.864 133.676 41.708 133.66 41.532C133.652 41.356 133.648 41.132 133.648 40.86H133.588V37.932C133.588 37.468 133.48 37.128 133.264 36.912C133.056 36.688 132.716 36.576 132.244 36.576C131.78 36.576 131.408 36.672 131.128 36.864C130.856 37.048 130.704 37.312 130.672 37.656H129.748C129.788 37.064 130.036 36.6 130.492 36.264C130.948 35.928 131.544 35.76 132.28 35.76C133.04 35.76 133.604 35.94 133.972 36.3C134.34 36.66 134.524 37.2 134.524 37.92V40.86C134.524 41.036 134.536 41.22 134.56 41.412C134.584 41.596 134.616 41.792 134.656 42H133.732ZM131.632 42.12C131 42.12 130.496 41.968 130.12 41.664C129.752 41.352 129.568 40.928 129.568 40.392C129.568 39.856 129.752 39.44 130.12 39.144C130.488 38.848 131.024 38.64 131.728 38.52L133.864 38.16V38.952L131.872 39.264C131.424 39.336 131.084 39.456 130.852 39.624C130.62 39.792 130.504 40.036 130.504 40.356C130.504 40.668 130.608 40.904 130.816 41.064C131.032 41.224 131.348 41.304 131.764 41.304C132.3 41.304 132.736 41.184 133.072 40.944C133.416 40.696 133.588 40.376 133.588 39.984L133.744 40.836C133.616 41.244 133.364 41.56 132.988 41.784C132.62 42.008 132.168 42.12 131.632 42.12ZM140.826 42V40.572L140.946 40.608C140.794 41.072 140.514 41.44 140.106 41.712C139.706 41.984 139.226 42.12 138.666 42.12C138.114 42.12 137.63 41.988 137.214 41.724C136.806 41.46 136.486 41.092 136.254 40.62C136.03 40.148 135.918 39.596 135.918 38.964C135.918 38.324 136.034 37.764 136.266 37.284C136.498 36.804 136.822 36.432 137.238 36.168C137.654 35.904 138.142 35.772 138.702 35.772C139.278 35.772 139.762 35.912 140.154 36.192C140.546 36.472 140.814 36.868 140.958 37.38L140.766 37.404V33.36H141.726V42H140.826ZM138.846 41.28C139.462 41.28 139.942 41.072 140.286 40.656C140.638 40.232 140.814 39.656 140.814 38.928C140.814 38.216 140.638 37.652 140.286 37.236C139.934 36.82 139.454 36.612 138.846 36.612C138.238 36.612 137.762 36.82 137.418 37.236C137.074 37.652 136.902 38.228 136.902 38.964C136.902 39.684 137.074 40.252 137.418 40.668C137.762 41.076 138.238 41.28 138.846 41.28ZM146.159 42.12C145.575 42.12 145.059 41.984 144.611 41.712C144.163 41.432 143.811 41.052 143.555 40.572C143.299 40.092 143.171 39.54 143.171 38.916C143.171 38.292 143.295 37.744 143.543 37.272C143.799 36.792 144.155 36.42 144.611 36.156C145.067 35.892 145.591 35.76 146.183 35.76C146.751 35.76 147.243 35.884 147.659 36.132C148.083 36.38 148.407 36.728 148.631 37.176C148.863 37.624 148.979 38.152 148.979 38.76C148.979 38.84 148.975 38.916 148.967 38.988C148.967 39.06 148.959 39.14 148.943 39.228H143.891V38.424H148.355L148.043 38.868C148.043 38.132 147.879 37.568 147.551 37.176C147.231 36.776 146.775 36.576 146.183 36.576C145.575 36.576 145.083 36.788 144.707 37.212C144.339 37.628 144.155 38.192 144.155 38.904C144.155 39.632 144.339 40.216 144.707 40.656C145.083 41.088 145.583 41.304 146.207 41.304C146.599 41.304 146.943 41.22 147.239 41.052C147.535 40.876 147.751 40.628 147.887 40.308H148.799C148.599 40.868 148.263 41.312 147.791 41.64C147.327 41.96 146.783 42.12 146.159 42.12ZM150.425 42V35.88H151.325V37.44H151.385V42H150.425ZM151.385 38.808L151.229 37.356C151.373 36.836 151.629 36.44 151.997 36.168C152.365 35.896 152.789 35.76 153.269 35.76C153.469 35.76 153.605 35.776 153.677 35.808V36.732C153.637 36.716 153.581 36.708 153.509 36.708C153.437 36.7 153.349 36.696 153.245 36.696C152.637 36.696 152.173 36.88 151.853 37.248C151.541 37.608 151.385 38.128 151.385 38.808Z" fill="white"/>
</svg>
