<svg width="85" height="20" viewBox="0 0 85 20" fill="none" xmlns="http://www.w3.org/2000/svg">
<path d="M0 6.4C0 4.15979 0 3.03969 0.435974 2.18404C0.819467 1.43139 1.43139 0.819467 2.18404 0.435974C3.03969 0 4.15979 0 6.4 0H78.6C80.8402 0 81.9603 0 82.816 0.435974C83.5686 0.819467 84.1805 1.43139 84.564 2.18404C85 3.03969 85 4.15979 85 6.4V13.6C85 15.8402 85 16.9603 84.564 17.816C84.1805 18.5686 83.5686 19.1805 82.816 19.564C81.9603 20 80.8402 20 78.6 20H6.4C4.15979 20 3.03969 20 2.18404 19.564C1.43139 19.1805 0.819467 18.5686 0.435974 17.816C0 16.9603 0 15.8402 0 13.6V6.4Z" fill="#3B5999"/>
<path d="M18.6667 10.0408C18.6667 6.33638 15.6819 3.33337 12 3.33337C8.31814 3.33337 5.33337 6.33638 5.33337 10.0408C5.33337 13.3886 7.77126 16.1635 10.9584 16.6667V11.9796H9.26567V10.0408H10.9584V8.56306C10.9584 6.88201 11.9537 5.95346 13.4765 5.95346C14.2056 5.95346 14.9688 6.08446 14.9688 6.08446V7.73511H14.1282C13.3 7.73511 13.0417 8.25218 13.0417 8.78314V10.0408H14.8907L14.5951 11.9796H13.0417V16.6667C16.2288 16.1635 18.6667 13.3886 18.6667 10.0408Z" fill="white"/>
<path d="M24.9588 14V5.27273H30.3707V6.40625H26.2756V9.06534H29.983V10.1946H26.2756V14H24.9588ZM33.7692 14.1449C33.3544 14.1449 32.9794 14.0682 32.6442 13.9148C32.3089 13.7585 32.0433 13.5327 31.8473 13.2372C31.6541 12.9418 31.5575 12.5795 31.5575 12.1506C31.5575 11.7812 31.6286 11.4773 31.7706 11.2386C31.9126 11 32.1044 10.8111 32.3459 10.6719C32.5874 10.5327 32.8572 10.4276 33.1555 10.3565C33.4538 10.2855 33.7578 10.2315 34.0675 10.1946C34.4595 10.1491 34.7777 10.1122 35.022 10.0838C35.2663 10.0526 35.4439 10.0028 35.5547 9.93466C35.6655 9.86648 35.7209 9.75568 35.7209 9.60227V9.57244C35.7209 9.20028 35.6158 8.91193 35.4055 8.70739C35.1982 8.50284 34.8885 8.40057 34.4766 8.40057C34.0476 8.40057 33.7095 8.49574 33.4624 8.68608C33.218 8.87358 33.049 9.08239 32.9553 9.3125L31.7578 9.03977C31.8999 8.64205 32.1072 8.32102 32.38 8.0767C32.6555 7.82955 32.9723 7.65057 33.3303 7.53977C33.6882 7.42614 34.0646 7.36932 34.4595 7.36932C34.7209 7.36932 34.9979 7.40057 35.2905 7.46307C35.5859 7.52273 35.8615 7.63352 36.1172 7.79545C36.3757 7.95739 36.5874 8.18892 36.7521 8.49006C36.9169 8.78835 36.9993 9.17614 36.9993 9.65341V14H35.755V13.1051H35.7038C35.6214 13.2699 35.4979 13.4318 35.3331 13.5909C35.1683 13.75 34.9567 13.8821 34.6982 13.9872C34.4396 14.0923 34.13 14.1449 33.7692 14.1449ZM34.0462 13.1222C34.3984 13.1222 34.6996 13.0526 34.9496 12.9134C35.2024 12.7741 35.3942 12.5923 35.5249 12.3679C35.6584 12.1406 35.7251 11.8977 35.7251 11.6392V10.7955C35.6797 10.8409 35.5916 10.8835 35.4609 10.9233C35.3331 10.9602 35.1868 10.9929 35.022 11.0213C34.8572 11.0469 34.6967 11.071 34.5405 11.0938C34.3842 11.1136 34.2536 11.1307 34.1484 11.1449C33.9013 11.1761 33.6754 11.2287 33.4709 11.3026C33.2692 11.3764 33.1072 11.483 32.9851 11.6222C32.8658 11.7585 32.8061 11.9403 32.8061 12.1676C32.8061 12.483 32.9226 12.7216 33.1555 12.8835C33.3885 13.0426 33.6854 13.1222 34.0462 13.1222ZM41.4535 14.1321C40.82 14.1321 40.2745 13.9886 39.8171 13.7017C39.3626 13.4119 39.0131 13.0128 38.7688 12.5043C38.5245 11.9957 38.4023 11.4134 38.4023 10.7571C38.4023 10.0923 38.5273 9.50568 38.7773 8.99716C39.0273 8.4858 39.3796 8.08665 39.8342 7.79972C40.2887 7.51278 40.8242 7.36932 41.4407 7.36932C41.9379 7.36932 42.381 7.46165 42.7702 7.64631C43.1594 7.82812 43.4734 8.08381 43.712 8.41335C43.9535 8.7429 44.0969 9.12784 44.1424 9.56818H42.9023C42.8342 9.26136 42.6779 8.99716 42.4336 8.77557C42.1921 8.55398 41.8683 8.44318 41.462 8.44318C41.1069 8.44318 40.7958 8.53693 40.5288 8.72443C40.2646 8.90909 40.0586 9.1733 39.9109 9.51705C39.7631 9.85795 39.6893 10.2614 39.6893 10.7273C39.6893 11.2045 39.7617 11.6165 39.9066 11.9631C40.0515 12.3097 40.256 12.5781 40.5202 12.7685C40.7873 12.9588 41.1012 13.054 41.462 13.054C41.7035 13.054 41.9222 13.0099 42.1183 12.9219C42.3171 12.831 42.4833 12.7017 42.6168 12.5341C42.7532 12.3665 42.8484 12.1648 42.9023 11.929H44.1424C44.0969 12.3523 43.9592 12.7301 43.729 13.0625C43.4989 13.3949 43.1907 13.6562 42.8043 13.8466C42.4208 14.0369 41.9705 14.1321 41.4535 14.1321ZM48.326 14.1321C47.6811 14.1321 47.1257 13.9943 46.6598 13.7188C46.1967 13.4403 45.8388 13.0497 45.5859 12.5469C45.3359 12.0412 45.2109 11.4489 45.2109 10.7699C45.2109 10.0994 45.3359 9.50852 45.5859 8.99716C45.8388 8.4858 46.1911 8.08665 46.6428 7.79972C47.0973 7.51278 47.6286 7.36932 48.2365 7.36932C48.6058 7.36932 48.9638 7.4304 49.3104 7.55256C49.657 7.67472 49.968 7.86648 50.2436 8.12784C50.5192 8.3892 50.7365 8.72869 50.8956 9.14631C51.0547 9.56108 51.1342 10.0653 51.1342 10.6591V11.1108H45.9311V10.1562H49.8857C49.8857 9.82102 49.8175 9.52415 49.6811 9.26562C49.5447 9.00426 49.353 8.7983 49.1058 8.64773C48.8615 8.49716 48.5746 8.42188 48.245 8.42188C47.8871 8.42188 47.5746 8.50994 47.3075 8.68608C47.0433 8.85937 46.8388 9.08665 46.6939 9.3679C46.5518 9.64631 46.4808 9.94886 46.4808 10.2756V11.0213C46.4808 11.4588 46.5575 11.831 46.7109 12.1378C46.8672 12.4446 47.0845 12.679 47.3629 12.8409C47.6413 13 47.9666 13.0795 48.3388 13.0795C48.5803 13.0795 48.8004 13.0455 48.9993 12.9773C49.1982 12.9062 49.37 12.8011 49.5149 12.6619C49.6598 12.5227 49.7706 12.3509 49.8473 12.1463L51.0533 12.3636C50.9567 12.7187 50.7834 13.0298 50.5334 13.2969C50.2862 13.5611 49.9751 13.767 49.6001 13.9148C49.228 14.0597 48.8033 14.1321 48.326 14.1321ZM52.6502 14V5.27273H53.9244V8.51562H54.0011C54.0749 8.37926 54.1815 8.22159 54.3207 8.04261C54.4599 7.86364 54.6531 7.70739 54.9002 7.57386C55.1474 7.4375 55.4741 7.36932 55.8803 7.36932C56.4087 7.36932 56.8803 7.50284 57.2951 7.76989C57.7099 8.03693 58.0352 8.42187 58.271 8.92472C58.5096 9.42756 58.6289 10.0327 58.6289 10.7401C58.6289 11.4474 58.511 12.054 58.2752 12.5597C58.0394 13.0625 57.7156 13.4503 57.3036 13.723C56.8917 13.9929 56.4215 14.1278 55.8931 14.1278C55.4954 14.1278 55.1701 14.0611 54.9173 13.9276C54.6673 13.794 54.4712 13.6378 54.3292 13.4588C54.1871 13.2798 54.0778 13.1207 54.0011 12.9815H53.8945V14H52.6502ZM53.8988 10.7273C53.8988 11.1875 53.9656 11.5909 54.0991 11.9375C54.2326 12.2841 54.4258 12.5554 54.6786 12.7514C54.9315 12.9446 55.2411 13.0412 55.6076 13.0412C55.9883 13.0412 56.3065 12.9403 56.5621 12.7386C56.8178 12.5341 57.011 12.2571 57.1417 11.9077C57.2752 11.5582 57.342 11.1648 57.342 10.7273C57.342 10.2955 57.2766 9.90767 57.146 9.56392C57.0181 9.22017 56.8249 8.94886 56.5664 8.75C56.3107 8.55114 55.9911 8.4517 55.6076 8.4517C55.2383 8.4517 54.9258 8.54687 54.6701 8.73722C54.4173 8.92756 54.2255 9.19318 54.0948 9.53409C53.9641 9.875 53.8988 10.2727 53.8988 10.7273ZM62.8168 14.1321C62.2031 14.1321 61.6676 13.9915 61.2102 13.7102C60.7528 13.429 60.3977 13.0355 60.1449 12.5298C59.892 12.0241 59.7656 11.4332 59.7656 10.7571C59.7656 10.0781 59.892 9.48437 60.1449 8.97585C60.3977 8.46733 60.7528 8.07244 61.2102 7.79119C61.6676 7.50994 62.2031 7.36932 62.8168 7.36932C63.4304 7.36932 63.9659 7.50994 64.4233 7.79119C64.8807 8.07244 65.2358 8.46733 65.4886 8.97585C65.7415 9.48437 65.8679 10.0781 65.8679 10.7571C65.8679 11.4332 65.7415 12.0241 65.4886 12.5298C65.2358 13.0355 64.8807 13.429 64.4233 13.7102C63.9659 13.9915 63.4304 14.1321 62.8168 14.1321ZM62.821 13.0625C63.2188 13.0625 63.5483 12.9574 63.8097 12.7472C64.071 12.5369 64.2642 12.2571 64.3892 11.9077C64.517 11.5582 64.581 11.1733 64.581 10.7528C64.581 10.3352 64.517 9.9517 64.3892 9.60227C64.2642 9.25 64.071 8.96733 63.8097 8.75426C63.5483 8.54119 63.2188 8.43466 62.821 8.43466C62.4205 8.43466 62.0881 8.54119 61.8239 8.75426C61.5625 8.96733 61.3679 9.25 61.2401 9.60227C61.1151 9.9517 61.0526 10.3352 61.0526 10.7528C61.0526 11.1733 61.1151 11.5582 61.2401 11.9077C61.3679 12.2571 61.5625 12.5369 61.8239 12.7472C62.0881 12.9574 62.4205 13.0625 62.821 13.0625ZM70.0472 14.1321C69.4336 14.1321 68.8981 13.9915 68.4407 13.7102C67.9833 13.429 67.6282 13.0355 67.3754 12.5298C67.1225 12.0241 66.9961 11.4332 66.9961 10.7571C66.9961 10.0781 67.1225 9.48437 67.3754 8.97585C67.6282 8.46733 67.9833 8.07244 68.4407 7.79119C68.8981 7.50994 69.4336 7.36932 70.0472 7.36932C70.6609 7.36932 71.1964 7.50994 71.6538 7.79119C72.1112 8.07244 72.4663 8.46733 72.7191 8.97585C72.9719 9.48437 73.0984 10.0781 73.0984 10.7571C73.0984 11.4332 72.9719 12.0241 72.7191 12.5298C72.4663 13.0355 72.1112 13.429 71.6538 13.7102C71.1964 13.9915 70.6609 14.1321 70.0472 14.1321ZM70.0515 13.0625C70.4492 13.0625 70.7788 12.9574 71.0401 12.7472C71.3015 12.5369 71.4947 12.2571 71.6197 11.9077C71.7475 11.5582 71.8114 11.1733 71.8114 10.7528C71.8114 10.3352 71.7475 9.9517 71.6197 9.60227C71.4947 9.25 71.3015 8.96733 71.0401 8.75426C70.7788 8.54119 70.4492 8.43466 70.0515 8.43466C69.6509 8.43466 69.3185 8.54119 69.0543 8.75426C68.793 8.96733 68.5984 9.25 68.4705 9.60227C68.3455 9.9517 68.283 10.3352 68.283 10.7528C68.283 11.1733 68.3455 11.5582 68.4705 11.9077C68.5984 12.2571 68.793 12.5369 69.0543 12.7472C69.3185 12.9574 69.6509 13.0625 70.0515 13.0625ZM75.6925 11.7798L75.6839 10.2244H75.9055L78.5135 7.45455H80.0391L77.0646 10.608H76.8643L75.6925 11.7798ZM74.5206 14V5.27273H75.7947V14H74.5206ZM78.6541 14L76.3104 10.8892L77.1882 9.99858L80.218 14H78.6541Z" fill="white"/>
</svg>
