<svg width="86" height="20" viewBox="0 0 86 20" fill="none" xmlns="http://www.w3.org/2000/svg">
<path d="M0 6.4C0 4.15979 0 3.03969 0.435974 2.18404C0.819467 1.43139 1.43139 0.819467 2.18404 0.435974C3.03969 0 4.15979 0 6.4 0H79.6C81.8402 0 82.9603 0 83.816 0.435974C84.5686 0.819467 85.1805 1.43139 85.564 2.18404C86 3.03969 86 4.15979 86 6.4V13.6C86 15.8402 86 16.9603 85.564 17.816C85.1805 18.5686 84.5686 19.1805 83.816 19.564C82.9603 20 81.8402 20 79.6 20H6.4C4.15979 20 3.03969 20 2.18404 19.564C1.43139 19.1805 0.819467 18.5686 0.435974 17.816C0 16.9603 0 15.8402 0 13.6V6.4Z" fill="#F4293E"/>
<path d="M12.0039 4.53191C13.7862 4.53191 13.9973 4.53973 14.6982 4.571C15.3497 4.59966 15.7014 4.7091 15.9359 4.8003C16.246 4.92016 16.4701 5.06608 16.702 5.29799C16.9365 5.5325 17.0798 5.75398 17.1997 6.06406C17.2909 6.29857 17.4003 6.65295 17.429 7.30176C17.4603 8.0053 17.4681 8.21636 17.4681 9.99605C17.4681 11.7783 17.4603 11.9894 17.429 12.6903C17.4003 13.3418 17.2909 13.6935 17.1997 13.928C17.0798 14.2381 16.9339 14.4622 16.702 14.6941C16.4675 14.9286 16.246 15.0719 15.9359 15.1918C15.7014 15.283 15.3471 15.3924 14.6982 15.4211C13.9947 15.4524 13.7836 15.4602 12.0039 15.4602C10.2217 15.4602 10.0106 15.4524 9.30966 15.4211C8.65824 15.3924 8.30647 15.283 8.07196 15.1918C7.76188 15.0719 7.53779 14.926 7.30588 14.6941C7.07137 14.4596 6.92806 14.2381 6.8082 13.928C6.717 13.6935 6.60756 13.3392 6.5789 12.6903C6.54763 11.9868 6.53981 11.7757 6.53981 9.99605C6.53981 8.21376 6.54763 8.0027 6.5789 7.30176C6.60756 6.65034 6.717 6.29857 6.8082 6.06406C6.92806 5.75398 7.07398 5.52989 7.30588 5.29799C7.5404 5.06347 7.76188 4.92016 8.07196 4.8003C8.30647 4.7091 8.66084 4.59966 9.30966 4.571C10.0106 4.53973 10.2217 4.53191 12.0039 4.53191ZM12.0039 3.33069C10.193 3.33069 9.9663 3.33851 9.25494 3.36977C8.54619 3.40104 8.05893 3.51569 7.63681 3.67985C7.19644 3.85183 6.82383 4.07852 6.45382 4.45114C6.08121 4.82114 5.85451 5.19376 5.68254 5.63152C5.51838 6.05624 5.40373 6.5409 5.37246 7.24965C5.34119 7.96361 5.33337 8.19031 5.33337 10.0013C5.33337 11.8122 5.34119 12.0389 5.37246 12.7503C5.40373 13.459 5.51838 13.9463 5.68254 14.3684C5.85451 14.8088 6.08121 15.1814 6.45382 15.5514C6.82383 15.9214 7.19644 16.1507 7.6342 16.3201C8.05893 16.4842 8.54359 16.5989 9.25234 16.6301C9.96369 16.6614 10.1904 16.6692 12.0013 16.6692C13.8123 16.6692 14.039 16.6614 14.7503 16.6301C15.4591 16.5989 15.9464 16.4842 16.3685 16.3201C16.8062 16.1507 17.1789 15.9214 17.5489 15.5514C17.9189 15.1814 18.1482 14.8088 18.3175 14.371C18.4817 13.9463 18.5964 13.4616 18.6276 12.7529C18.6589 12.0415 18.6667 11.8148 18.6667 10.0039C18.6667 8.19291 18.6589 7.96622 18.6276 7.25486C18.5964 6.54611 18.4817 6.05885 18.3175 5.63673C18.1534 5.19376 17.9267 4.82114 17.5541 4.45114C17.1841 4.08113 16.8115 3.85183 16.3737 3.68246C15.949 3.5183 15.4643 3.40365 14.7556 3.37238C14.0416 3.33851 13.8149 3.33069 12.0039 3.33069Z" fill="white"/>
<path d="M12.0039 6.57478C10.1122 6.57478 8.57746 8.10953 8.57746 10.0013C8.57746 11.893 10.1122 13.4277 12.0039 13.4277C13.8957 13.4277 15.4304 11.893 15.4304 10.0013C15.4304 8.10953 13.8957 6.57478 12.0039 6.57478ZM12.0039 12.2239C10.7767 12.2239 9.78129 11.2285 9.78129 10.0013C9.78129 8.77398 10.7767 7.77861 12.0039 7.77861C13.2312 7.77861 14.2266 8.77398 14.2266 10.0013C14.2266 11.2285 13.2312 12.2239 12.0039 12.2239Z" fill="white"/>
<path d="M16.3659 6.43925C16.3659 6.88222 16.0063 7.2392 15.5659 7.2392C15.123 7.2392 14.766 6.87962 14.766 6.43925C14.766 5.99629 15.1256 5.63931 15.5659 5.63931C16.0063 5.63931 16.3659 5.99889 16.3659 6.43925Z" fill="white"/>
<path d="M26.2756 5.27273V14H24.9588V5.27273H26.2756ZM29.3651 10.1136V14H28.0909V7.45455H29.3139V8.51989H29.3949C29.5455 8.1733 29.7813 7.89489 30.1023 7.68466C30.4261 7.47443 30.8338 7.36932 31.3253 7.36932C31.7713 7.36932 32.1619 7.46307 32.4972 7.65057C32.8324 7.83523 33.0923 8.1108 33.277 8.47727C33.4616 8.84375 33.554 9.29687 33.554 9.83665V14H32.2798V9.99006C32.2798 9.51562 32.1563 9.14489 31.9091 8.87784C31.6619 8.60795 31.3224 8.47301 30.8906 8.47301C30.5952 8.47301 30.3324 8.53693 30.1023 8.66477C29.875 8.79261 29.6946 8.98011 29.5611 9.22727C29.4304 9.47159 29.3651 9.76705 29.3651 10.1136ZM40.1676 9.05256L39.0128 9.2571C38.9645 9.10937 38.8878 8.96875 38.7827 8.83523C38.6804 8.7017 38.5412 8.59233 38.3651 8.5071C38.1889 8.42187 37.9688 8.37926 37.7045 8.37926C37.3438 8.37926 37.0426 8.46023 36.8011 8.62216C36.5597 8.78125 36.4389 8.98722 36.4389 9.24006C36.4389 9.45881 36.5199 9.63494 36.6818 9.76847C36.8438 9.90199 37.1051 10.0114 37.4659 10.0966L38.5057 10.3352C39.108 10.4744 39.5568 10.6889 39.8523 10.9787C40.1477 11.2685 40.2955 11.6449 40.2955 12.108C40.2955 12.5 40.1818 12.8494 39.9545 13.1562C39.7301 13.4602 39.4162 13.6989 39.0128 13.8722C38.6122 14.0455 38.1477 14.1321 37.6193 14.1321C36.8864 14.1321 36.2884 13.9759 35.8253 13.6634C35.3622 13.348 35.0781 12.9006 34.973 12.321L36.2045 12.1335C36.2813 12.4545 36.4389 12.6974 36.6776 12.8622C36.9162 13.0241 37.2273 13.1051 37.6108 13.1051C38.0284 13.1051 38.3622 13.0185 38.6122 12.8452C38.8622 12.669 38.9872 12.4545 38.9872 12.2017C38.9872 11.9972 38.9105 11.8253 38.7571 11.6861C38.6065 11.5469 38.375 11.4418 38.0625 11.3707L36.9545 11.1278C36.3438 10.9886 35.892 10.767 35.5994 10.4631C35.3097 10.1591 35.1648 9.77415 35.1648 9.30824C35.1648 8.92187 35.2727 8.58381 35.4886 8.29403C35.7045 8.00426 36.0028 7.77841 36.3835 7.61648C36.7642 7.4517 37.2003 7.36932 37.6918 7.36932C38.3991 7.36932 38.956 7.52273 39.3622 7.82955C39.7685 8.13352 40.0369 8.54119 40.1676 9.05256ZM44.7518 7.45455V8.47727H41.1765V7.45455H44.7518ZM42.1353 5.88636H43.4094V12.0781C43.4094 12.3253 43.4464 12.5114 43.5202 12.6364C43.5941 12.7585 43.6893 12.8423 43.8058 12.8878C43.9251 12.9304 44.0543 12.9517 44.1935 12.9517C44.2958 12.9517 44.3853 12.9446 44.462 12.9304C44.5387 12.9162 44.5984 12.9048 44.641 12.8963L44.8711 13.9489C44.7972 13.9773 44.6921 14.0057 44.5558 14.0341C44.4194 14.0653 44.2489 14.0824 44.0444 14.0852C43.7092 14.0909 43.3967 14.0312 43.1069 13.9062C42.8171 13.7812 42.5827 13.5881 42.4038 13.3267C42.2248 13.0653 42.1353 12.7372 42.1353 12.3423V5.88636ZM48.0661 14.1449C47.6513 14.1449 47.2763 14.0682 46.9411 13.9148C46.6058 13.7585 46.3402 13.5327 46.1442 13.2372C45.951 12.9418 45.8544 12.5795 45.8544 12.1506C45.8544 11.7812 45.9254 11.4773 46.0675 11.2386C46.2095 11 46.4013 10.8111 46.6428 10.6719C46.8842 10.5327 47.1541 10.4276 47.4524 10.3565C47.7507 10.2855 48.0547 10.2315 48.3643 10.1946C48.7564 10.1491 49.0746 10.1122 49.3189 10.0838C49.5632 10.0526 49.7408 10.0028 49.8516 9.93466C49.9624 9.86648 50.0178 9.75568 50.0178 9.60227V9.57244C50.0178 9.20028 49.9126 8.91193 49.7024 8.70739C49.495 8.50284 49.1854 8.40057 48.7734 8.40057C48.3445 8.40057 48.0064 8.49574 47.7592 8.68608C47.5149 8.87358 47.3459 9.08239 47.2521 9.3125L46.0547 9.03977C46.1967 8.64205 46.4041 8.32102 46.6768 8.0767C46.9524 7.82955 47.2692 7.65057 47.6271 7.53977C47.9851 7.42614 48.3615 7.36932 48.7564 7.36932C49.0178 7.36932 49.2947 7.40057 49.5874 7.46307C49.8828 7.52273 50.1584 7.63352 50.4141 7.79545C50.6726 7.95739 50.8842 8.18892 51.049 8.49006C51.2138 8.78835 51.2962 9.17614 51.2962 9.65341V14H50.0518V13.1051H50.0007C49.9183 13.2699 49.7947 13.4318 49.63 13.5909C49.4652 13.75 49.2536 13.8821 48.995 13.9872C48.7365 14.0923 48.4268 14.1449 48.0661 14.1449ZM48.343 13.1222C48.6953 13.1222 48.9964 13.0526 49.2464 12.9134C49.4993 12.7741 49.6911 12.5923 49.8217 12.3679C49.9553 12.1406 50.022 11.8977 50.022 11.6392V10.7955C49.9766 10.8409 49.8885 10.8835 49.7578 10.9233C49.63 10.9602 49.4837 10.9929 49.3189 11.0213C49.1541 11.0469 48.9936 11.071 48.8374 11.0938C48.6811 11.1136 48.5504 11.1307 48.4453 11.1449C48.1982 11.1761 47.9723 11.2287 47.7678 11.3026C47.5661 11.3764 47.4041 11.483 47.282 11.6222C47.1626 11.7585 47.103 11.9403 47.103 12.1676C47.103 12.483 47.2195 12.7216 47.4524 12.8835C47.6854 13.0426 47.9822 13.1222 48.343 13.1222ZM55.7376 16.5909C55.2177 16.5909 54.7702 16.5227 54.3952 16.3864C54.0231 16.25 53.7191 16.0696 53.4833 15.8452C53.2475 15.6207 53.0714 15.375 52.9549 15.108L54.0501 14.6562C54.1268 14.7812 54.229 14.9134 54.3569 15.0526C54.4876 15.1946 54.6637 15.3153 54.8853 15.4148C55.1097 15.5142 55.3981 15.5639 55.7504 15.5639C56.2333 15.5639 56.6325 15.446 56.9478 15.2102C57.2631 14.9773 57.4208 14.6051 57.4208 14.0938V12.8068H57.3398C57.2631 12.946 57.1523 13.1009 57.0075 13.2713C56.8654 13.4418 56.6694 13.5895 56.4194 13.7145C56.1694 13.8395 55.8441 13.902 55.4435 13.902C54.9265 13.902 54.4606 13.7812 54.0458 13.5398C53.6339 13.2955 53.3072 12.9361 53.0657 12.4616C52.8271 11.9844 52.7077 11.3977 52.7077 10.7017C52.7077 10.0057 52.8256 9.40909 53.0614 8.91193C53.3001 8.41477 53.6268 8.03409 54.0415 7.76989C54.4563 7.50284 54.9265 7.36932 55.4521 7.36932C55.8583 7.36932 56.1864 7.4375 56.4364 7.57386C56.6864 7.70739 56.881 7.86364 57.0202 8.04261C57.1623 8.22159 57.2717 8.37926 57.3484 8.51562H57.4421V7.45455H58.6907V14.1449C58.6907 14.7074 58.56 15.169 58.2987 15.5298C58.0373 15.8906 57.6836 16.1577 57.2376 16.331C56.7944 16.5043 56.2944 16.5909 55.7376 16.5909ZM55.7248 12.8452C56.0913 12.8452 56.4009 12.7599 56.6538 12.5895C56.9094 12.4162 57.1026 12.169 57.2333 11.848C57.3668 11.5241 57.4336 11.1364 57.4336 10.6847C57.4336 10.2443 57.3683 9.85653 57.2376 9.52131C57.1069 9.18608 56.9151 8.92472 56.6623 8.73722C56.4094 8.54687 56.0969 8.4517 55.7248 8.4517C55.3413 8.4517 55.0217 8.55114 54.766 8.75C54.5103 8.94602 54.3171 9.21307 54.1864 9.55114C54.0586 9.8892 53.9947 10.267 53.9947 10.6847C53.9947 11.1136 54.06 11.4901 54.1907 11.8139C54.3214 12.1378 54.5146 12.3906 54.7702 12.5724C55.0288 12.7543 55.3469 12.8452 55.7248 12.8452ZM60.3995 14V7.45455H61.631V8.49432H61.6992C61.8185 8.14205 62.0288 7.86506 62.3299 7.66335C62.6339 7.45881 62.9776 7.35653 63.3612 7.35653C63.4407 7.35653 63.5344 7.35937 63.6424 7.36506C63.7532 7.37074 63.8398 7.37784 63.9023 7.38636V8.60511C63.8512 8.59091 63.7603 8.57528 63.6296 8.55824C63.4989 8.53835 63.3683 8.52841 63.2376 8.52841C62.9364 8.52841 62.668 8.59233 62.4322 8.72017C62.1992 8.84517 62.0146 9.01989 61.8782 9.24432C61.7418 9.46591 61.6737 9.71875 61.6737 10.0028V14H60.3995ZM66.8512 14.1449C66.4364 14.1449 66.0614 14.0682 65.7262 13.9148C65.391 13.7585 65.1254 13.5327 64.9293 13.2372C64.7362 12.9418 64.6396 12.5795 64.6396 12.1506C64.6396 11.7812 64.7106 11.4773 64.8526 11.2386C64.9947 11 65.1864 10.8111 65.4279 10.6719C65.6694 10.5327 65.9393 10.4276 66.2376 10.3565C66.5359 10.2855 66.8398 10.2315 67.1495 10.1946C67.5415 10.1491 67.8597 10.1122 68.104 10.0838C68.3484 10.0526 68.5259 10.0028 68.6367 9.93466C68.7475 9.86648 68.8029 9.75568 68.8029 9.60227V9.57244C68.8029 9.20028 68.6978 8.91193 68.4876 8.70739C68.2802 8.50284 67.9705 8.40057 67.5586 8.40057C67.1296 8.40057 66.7915 8.49574 66.5444 8.68608C66.3001 8.87358 66.131 9.08239 66.0373 9.3125L64.8398 9.03977C64.9819 8.64205 65.1893 8.32102 65.462 8.0767C65.7376 7.82955 66.0543 7.65057 66.4123 7.53977C66.7702 7.42614 67.1467 7.36932 67.5415 7.36932C67.8029 7.36932 68.0799 7.40057 68.3725 7.46307C68.668 7.52273 68.9435 7.63352 69.1992 7.79545C69.4577 7.95739 69.6694 8.18892 69.8342 8.49006C69.9989 8.78835 70.0813 9.17614 70.0813 9.65341V14H68.837V13.1051H68.7859C68.7035 13.2699 68.5799 13.4318 68.4151 13.5909C68.2504 13.75 68.0387 13.8821 67.7802 13.9872C67.5217 14.0923 67.212 14.1449 66.8512 14.1449ZM67.1282 13.1222C67.4805 13.1222 67.7816 13.0526 68.0316 12.9134C68.2844 12.7741 68.4762 12.5923 68.6069 12.3679C68.7404 12.1406 68.8072 11.8977 68.8072 11.6392V10.7955C68.7617 10.8409 68.6737 10.8835 68.543 10.9233C68.4151 10.9602 68.2688 10.9929 68.104 11.0213C67.9393 11.0469 67.7788 11.071 67.6225 11.0938C67.4663 11.1136 67.3356 11.1307 67.2305 11.1449C66.9833 11.1761 66.7575 11.2287 66.5529 11.3026C66.3512 11.3764 66.1893 11.483 66.0671 11.6222C65.9478 11.7585 65.8881 11.9403 65.8881 12.1676C65.8881 12.483 66.0046 12.7216 66.2376 12.8835C66.4705 13.0426 66.7674 13.1222 67.1282 13.1222ZM71.7784 14V7.45455H73.0014V8.51989H73.0824C73.2188 8.15909 73.4418 7.87784 73.7514 7.67614C74.0611 7.47159 74.4318 7.36932 74.8636 7.36932C75.3011 7.36932 75.6676 7.47159 75.9631 7.67614C76.2614 7.88068 76.4815 8.16193 76.6236 8.51989H76.6918C76.848 8.17045 77.0966 7.89205 77.4375 7.68466C77.7784 7.47443 78.1847 7.36932 78.6562 7.36932C79.25 7.36932 79.7344 7.5554 80.1094 7.92756C80.4872 8.29972 80.6761 8.8608 80.6761 9.6108V14H79.402V9.73011C79.402 9.28693 79.2813 8.96591 79.0398 8.76705C78.7983 8.56818 78.5099 8.46875 78.1747 8.46875C77.7599 8.46875 77.4375 8.59659 77.2074 8.85227C76.9773 9.10511 76.8622 9.4304 76.8622 9.82812V14H75.5923V9.64915C75.5923 9.29403 75.4815 9.00852 75.2599 8.79261C75.0384 8.5767 74.75 8.46875 74.3949 8.46875C74.1534 8.46875 73.9304 8.53267 73.7259 8.66051C73.5241 8.78551 73.3608 8.96023 73.2358 9.18466C73.1136 9.40909 73.0526 9.66903 73.0526 9.96449V14H71.7784Z" fill="white"/>
</svg>
