<svg width="77" height="20" viewBox="0 0 77 20" fill="none" xmlns="http://www.w3.org/2000/svg">
<path d="M0 6.4C0 4.15979 0 3.03969 0.435974 2.18404C0.819467 1.43139 1.43139 0.819467 2.18404 0.435974C3.03969 0 4.15979 0 6.4 0H70.6C72.8402 0 73.9603 0 74.816 0.435974C75.5686 0.819467 76.1805 1.43139 76.564 2.18404C77 3.03969 77 4.15979 77 6.4V13.6C77 15.8402 77 16.9603 76.564 17.816C76.1805 18.5686 75.5686 19.1805 74.816 19.564C73.9603 20 72.8402 20 70.6 20H6.4C4.15979 20 3.03969 20 2.18404 19.564C1.43139 19.1805 0.819467 18.5686 0.435974 17.816C0 16.9603 0 15.8402 0 13.6V6.4Z" fill="#1F72B0"/>
<path d="M17.6797 3.33337H6.31775C5.77348 3.33337 5.33337 3.76306 5.33337 4.29431V15.7032C5.33337 16.2344 5.77348 16.6667 6.31775 16.6667H17.6797C18.224 16.6667 18.6667 16.2344 18.6667 15.7058V4.29431C18.6667 3.76306 18.224 3.33337 17.6797 3.33337ZM9.2891 14.6954H7.30994V8.33077H9.2891V14.6954ZM8.29952 7.46358C7.6641 7.46358 7.15108 6.95056 7.15108 6.31775C7.15108 5.68494 7.6641 5.17192 8.29952 5.17192C8.93233 5.17192 9.44535 5.68494 9.44535 6.31775C9.44535 6.94796 8.93233 7.46358 8.29952 7.46358ZM16.6954 14.6954H14.7188V11.6016C14.7188 10.8646 14.7058 9.9141 13.6901 9.9141C12.6615 9.9141 12.5052 10.7188 12.5052 11.5495V14.6954H10.5313V8.33077H12.4271V9.20056H12.4532C12.7162 8.70056 13.362 8.17192 14.323 8.17192C16.3256 8.17192 16.6954 9.48962 16.6954 11.2032V14.6954Z" fill="white"/>
<path d="M24.9588 14V5.27273H26.2756V12.8665H30.2301V14H24.9588ZM31.63 14V7.45455H32.9041V14H31.63ZM32.2734 6.4446C32.0518 6.4446 31.8615 6.37074 31.7024 6.22301C31.5462 6.07244 31.468 5.89347 31.468 5.68608C31.468 5.47585 31.5462 5.29687 31.7024 5.14915C31.8615 4.99858 32.0518 4.9233 32.2734 4.9233C32.495 4.9233 32.6839 4.99858 32.8402 5.14915C32.9993 5.29687 33.0788 5.47585 33.0788 5.68608C33.0788 5.89347 32.9993 6.07244 32.8402 6.22301C32.6839 6.37074 32.495 6.4446 32.2734 6.4446ZM35.8924 10.1136V14H34.6183V7.45455H35.8413V8.51989H35.9222C36.0728 8.1733 36.3086 7.89489 36.6296 7.68466C36.9535 7.47443 37.3612 7.36932 37.8526 7.36932C38.2987 7.36932 38.6893 7.46307 39.0245 7.65057C39.3597 7.83523 39.6197 8.1108 39.8043 8.47727C39.989 8.84375 40.0813 9.29687 40.0813 9.83665V14H38.8072V9.99006C38.8072 9.51562 38.6836 9.14489 38.4364 8.87784C38.1893 8.60795 37.8498 8.47301 37.418 8.47301C37.1225 8.47301 36.8597 8.53693 36.6296 8.66477C36.4023 8.79261 36.2219 8.98011 36.0884 9.22727C35.9577 9.47159 35.8924 9.76705 35.8924 10.1136ZM42.962 11.7798L42.9535 10.2244H43.1751L45.783 7.45455H47.3086L44.3342 10.608H44.1339L42.962 11.7798ZM41.7901 14V5.27273H43.0643V14H41.7901ZM45.9237 14L43.5799 10.8892L44.4577 9.99858L47.4876 14H45.9237ZM51.0213 14.1321C50.3764 14.1321 49.821 13.9943 49.3551 13.7188C48.892 13.4403 48.5341 13.0497 48.2812 12.5469C48.0312 12.0412 47.9062 11.4489 47.9062 10.7699C47.9062 10.0994 48.0312 9.50852 48.2812 8.99716C48.5341 8.4858 48.8864 8.08665 49.3381 7.79972C49.7926 7.51278 50.3239 7.36932 50.9318 7.36932C51.3011 7.36932 51.6591 7.4304 52.0057 7.55256C52.3523 7.67472 52.6634 7.86648 52.9389 8.12784C53.2145 8.3892 53.4318 8.72869 53.5909 9.14631C53.75 9.56108 53.8295 10.0653 53.8295 10.6591V11.1108H48.6264V10.1562H52.581C52.581 9.82102 52.5128 9.52415 52.3764 9.26562C52.2401 9.00426 52.0483 8.7983 51.8011 8.64773C51.5568 8.49716 51.2699 8.42188 50.9403 8.42188C50.5824 8.42188 50.2699 8.50994 50.0028 8.68608C49.7386 8.85937 49.5341 9.08665 49.3892 9.3679C49.2472 9.64631 49.1761 9.94886 49.1761 10.2756V11.0213C49.1761 11.4588 49.2528 11.831 49.4062 12.1378C49.5625 12.4446 49.7798 12.679 50.0582 12.8409C50.3366 13 50.6619 13.0795 51.0341 13.0795C51.2756 13.0795 51.4957 13.0455 51.6946 12.9773C51.8935 12.9062 52.0653 12.8011 52.2102 12.6619C52.3551 12.5227 52.4659 12.3509 52.5426 12.1463L53.7486 12.3636C53.652 12.7187 53.4787 13.0298 53.2287 13.2969C52.9815 13.5611 52.6705 13.767 52.2955 13.9148C51.9233 14.0597 51.4986 14.1321 51.0213 14.1321ZM57.6935 14.1278C57.1651 14.1278 56.6935 13.9929 56.2788 13.723C55.8668 13.4503 55.543 13.0625 55.3072 12.5597C55.0742 12.054 54.9577 11.4474 54.9577 10.7401C54.9577 10.0327 55.0756 9.42756 55.3114 8.92472C55.5501 8.42187 55.8768 8.03693 56.2915 7.76989C56.7063 7.50284 57.1765 7.36932 57.7021 7.36932C58.1083 7.36932 58.435 7.4375 58.6822 7.57386C58.9322 7.70739 59.1254 7.86364 59.2617 8.04261C59.4009 8.22159 59.5089 8.37926 59.5856 8.51562H59.6623V5.27273H60.9364V14H59.6921V12.9815H59.5856C59.5089 13.1207 59.3981 13.2798 59.2532 13.4588C59.1112 13.6378 58.9151 13.794 58.6651 13.9276C58.4151 14.0611 58.0913 14.1278 57.6935 14.1278ZM57.9748 13.0412C58.3413 13.0412 58.6509 12.9446 58.9038 12.7514C59.1594 12.5554 59.3526 12.2841 59.4833 11.9375C59.6168 11.5909 59.6836 11.1875 59.6836 10.7273C59.6836 10.2727 59.6183 9.875 59.4876 9.53409C59.3569 9.19318 59.1651 8.92756 58.9123 8.73722C58.6594 8.54687 58.3469 8.4517 57.9748 8.4517C57.5913 8.4517 57.2717 8.55114 57.016 8.75C56.7603 8.94886 56.5671 9.22017 56.4364 9.56392C56.3086 9.90767 56.2447 10.2955 56.2447 10.7273C56.2447 11.1648 56.31 11.5582 56.4407 11.9077C56.5714 12.2571 56.7646 12.5341 57.0202 12.7386C57.2788 12.9403 57.5969 13.0412 57.9748 13.0412ZM64.174 5.27273V14H62.8572V5.27273H64.174ZM67.2635 10.1136V14H65.9893V7.45455H67.2124V8.51989H67.2933C67.4439 8.1733 67.6797 7.89489 68.0007 7.68466C68.3246 7.47443 68.7322 7.36932 69.2237 7.36932C69.6697 7.36932 70.0604 7.46307 70.3956 7.65057C70.7308 7.83523 70.9908 8.1108 71.1754 8.47727C71.3601 8.84375 71.4524 9.29687 71.4524 9.83665V14H70.1783V9.99006C70.1783 9.51562 70.0547 9.14489 69.8075 8.87784C69.5604 8.60795 69.2209 8.47301 68.7891 8.47301C68.4936 8.47301 68.2308 8.53693 68.0007 8.66477C67.7734 8.79261 67.593 8.98011 67.4595 9.22727C67.3288 9.47159 67.2635 9.76705 67.2635 10.1136Z" fill="white"/>
</svg>
