<svg width="64" height="20" viewBox="0 0 64 20" fill="none" xmlns="http://www.w3.org/2000/svg">
<path d="M0 6.4C0 4.15979 0 3.03969 0.435974 2.18404C0.819467 1.43139 1.43139 0.819467 2.18404 0.435974C3.03969 0 4.15979 0 6.4 0H57.6C59.8402 0 60.9603 0 61.816 0.435974C62.5686 0.819467 63.1805 1.43139 63.564 2.18404C64 3.03969 64 4.15979 64 6.4V13.6C64 15.8402 64 16.9603 63.564 17.816C63.1805 18.5686 62.5686 19.1805 61.816 19.564C60.9603 20 59.8402 20 57.6 20H6.4C4.15979 20 3.03969 20 2.18404 19.564C1.43139 19.1805 0.819467 18.5686 0.435974 17.816C0 16.9603 0 15.8402 0 13.6V6.4Z" fill="#2A2A30"/>
<path d="M14.6789 3.33337H12.4319V12.4155C12.4319 13.4976 11.5676 14.3865 10.4921 14.3865C9.4166 14.3865 8.55235 13.4976 8.55235 12.4155C8.55235 11.3527 9.39739 10.4831 10.4345 10.4445V8.1643C8.14903 8.20293 6.3053 10.0773 6.3053 12.4155C6.3053 14.773 8.18744 16.6667 10.5113 16.6667C12.8352 16.6667 14.7173 14.7537 14.7173 12.4155V7.75848C15.5624 8.37686 16.5995 8.744 17.6942 8.76334V6.48313C16.0041 6.42516 14.6789 5.03386 14.6789 3.33337Z" fill="white"/>
<path d="M24.5284 6.40625V5.27273H31.2827V6.40625H28.5597V14H27.2472V6.40625H24.5284ZM32.6729 14V7.45455H33.9471V14H32.6729ZM33.3164 6.4446C33.0948 6.4446 32.9045 6.37074 32.7454 6.22301C32.5891 6.07244 32.511 5.89347 32.511 5.68608C32.511 5.47585 32.5891 5.29687 32.7454 5.14915C32.9045 4.99858 33.0948 4.9233 33.3164 4.9233C33.538 4.9233 33.7269 4.99858 33.8832 5.14915C34.0423 5.29687 34.1218 5.47585 34.1218 5.68608C34.1218 5.89347 34.0423 6.07244 33.8832 6.22301C33.7269 6.37074 33.538 6.4446 33.3164 6.4446ZM36.8331 11.7798L36.8246 10.2244H37.0462L39.6541 7.45455H41.1797L38.2053 10.608H38.005L36.8331 11.7798ZM35.6612 14V5.27273H36.9354V14H35.6612ZM39.7947 14L37.451 10.8892L38.3288 9.99858L41.3587 14H39.7947ZM45.3963 7.45455V8.47727H41.821V7.45455H45.3963ZM42.7798 5.88636H44.054V12.0781C44.054 12.3253 44.0909 12.5114 44.1648 12.6364C44.2386 12.7585 44.3338 12.8423 44.4503 12.8878C44.5696 12.9304 44.6989 12.9517 44.8381 12.9517C44.9403 12.9517 45.0298 12.9446 45.1065 12.9304C45.1832 12.9162 45.2429 12.9048 45.2855 12.8963L45.5156 13.9489C45.4418 13.9773 45.3366 14.0057 45.2003 14.0341C45.0639 14.0653 44.8935 14.0824 44.6889 14.0852C44.3537 14.0909 44.0412 14.0312 43.7514 13.9062C43.4616 13.7812 43.2273 13.5881 43.0483 13.3267C42.8693 13.0653 42.7798 12.7372 42.7798 12.3423V5.88636ZM49.4925 14.1321C48.8789 14.1321 48.3434 13.9915 47.886 13.7102C47.4286 13.429 47.0735 13.0355 46.8207 12.5298C46.5678 12.0241 46.4414 11.4332 46.4414 10.7571C46.4414 10.0781 46.5678 9.48437 46.8207 8.97585C47.0735 8.46733 47.4286 8.07244 47.886 7.79119C48.3434 7.50994 48.8789 7.36932 49.4925 7.36932C50.1062 7.36932 50.6417 7.50994 51.0991 7.79119C51.5565 8.07244 51.9116 8.46733 52.1644 8.97585C52.4173 9.48437 52.5437 10.0781 52.5437 10.7571C52.5437 11.4332 52.4173 12.0241 52.1644 12.5298C51.9116 13.0355 51.5565 13.429 51.0991 13.7102C50.6417 13.9915 50.1062 14.1321 49.4925 14.1321ZM49.4968 13.0625C49.8945 13.0625 50.2241 12.9574 50.4854 12.7472C50.7468 12.5369 50.94 12.2571 51.065 11.9077C51.1928 11.5582 51.2567 11.1733 51.2567 10.7528C51.2567 10.3352 51.1928 9.9517 51.065 9.60227C50.94 9.25 50.7468 8.96733 50.4854 8.75426C50.2241 8.54119 49.8945 8.43466 49.4968 8.43466C49.0962 8.43466 48.7638 8.54119 48.4996 8.75426C48.2383 8.96733 48.0437 9.25 47.9158 9.60227C47.7908 9.9517 47.7283 10.3352 47.7283 10.7528C47.7283 11.1733 47.7908 11.5582 47.9158 11.9077C48.0437 12.2571 48.2383 12.5369 48.4996 12.7472C48.7638 12.9574 49.0962 13.0625 49.4968 13.0625ZM55.1378 11.7798L55.1293 10.2244H55.3509L57.9588 7.45455H59.4844L56.5099 10.608H56.3097L55.1378 11.7798ZM53.9659 14V5.27273H55.2401V14H53.9659ZM58.0994 14L55.7557 10.8892L56.6335 9.99858L59.6634 14H58.0994Z" fill="white"/>
</svg>
