<svg width="76" height="20" viewBox="0 0 76 20" fill="none" xmlns="http://www.w3.org/2000/svg">
<path d="M0 6.4C0 4.15979 0 3.03969 0.435974 2.18404C0.819467 1.43139 1.43139 0.819467 2.18404 0.435974C3.03969 0 4.15979 0 6.4 0H69.6C71.8402 0 72.9603 0 73.816 0.435974C74.5686 0.819467 75.1805 1.43139 75.564 2.18404C76 3.03969 76 4.15979 76 6.4V13.6C76 15.8402 76 16.9603 75.564 17.816C75.1805 18.5686 74.5686 19.1805 73.816 19.564C72.9603 20 71.8402 20 69.6 20H6.4C4.15979 20 3.03969 20 2.18404 19.564C1.43139 19.1805 0.819467 18.5686 0.435974 17.816C0 16.9603 0 15.8402 0 13.6V6.4Z" fill="#CD201F"/>
<path d="M18.5339 7.33459C18.5339 7.33459 18.4037 6.41532 18.0026 6.01168C17.4948 5.48043 16.9271 5.47782 16.6667 5.44657C14.8021 5.31116 12.0026 5.31116 12.0026 5.31116H11.9974C11.9974 5.31116 9.19796 5.31116 7.33337 5.44657C7.07296 5.47782 6.50525 5.48043 5.99744 6.01168C5.59639 6.41532 5.46879 7.33459 5.46879 7.33459C5.46879 7.33459 5.33337 8.41532 5.33337 9.49345V10.5039C5.33337 11.582 5.46619 12.6627 5.46619 12.6627C5.46619 12.6627 5.59639 13.582 5.99483 13.9856C6.50264 14.5169 7.16931 14.4987 7.46619 14.5559C8.53389 14.6575 12 14.6888 12 14.6888C12 14.6888 14.8021 14.6836 16.6667 14.5507C16.9271 14.5195 17.4948 14.5169 18.0026 13.9856C18.4037 13.582 18.5339 12.6627 18.5339 12.6627C18.5339 12.6627 18.6667 11.5846 18.6667 10.5039V9.49345C18.6667 8.41532 18.5339 7.33459 18.5339 7.33459ZM10.6224 11.7304V7.98303L14.224 9.86324L10.6224 11.7304Z" fill="white"/>
<path d="M24.2855 5.27273H25.7812L28.0611 9.24006H28.1548L30.4347 5.27273H31.9304L28.7642 10.5739V14H27.4517V10.5739L24.2855 5.27273ZM34.7504 14.1321C34.1367 14.1321 33.6012 13.9915 33.1438 13.7102C32.6864 13.429 32.3313 13.0355 32.0785 12.5298C31.8256 12.0241 31.6992 11.4332 31.6992 10.7571C31.6992 10.0781 31.8256 9.48437 32.0785 8.97585C32.3313 8.46733 32.6864 8.07244 33.1438 7.79119C33.6012 7.50994 34.1367 7.36932 34.7504 7.36932C35.364 7.36932 35.8995 7.50994 36.3569 7.79119C36.8143 8.07244 37.1694 8.46733 37.4222 8.97585C37.6751 9.48437 37.8015 10.0781 37.8015 10.7571C37.8015 11.4332 37.6751 12.0241 37.4222 12.5298C37.1694 13.0355 36.8143 13.429 36.3569 13.7102C35.8995 13.9915 35.364 14.1321 34.7504 14.1321ZM34.7546 13.0625C35.1523 13.0625 35.4819 12.9574 35.7433 12.7472C36.0046 12.5369 36.1978 12.2571 36.3228 11.9077C36.4506 11.5582 36.5146 11.1733 36.5146 10.7528C36.5146 10.3352 36.4506 9.9517 36.3228 9.60227C36.1978 9.25 36.0046 8.96733 35.7433 8.75426C35.4819 8.54119 35.1523 8.43466 34.7546 8.43466C34.354 8.43466 34.0217 8.54119 33.7575 8.75426C33.4961 8.96733 33.3015 9.25 33.1737 9.60227C33.0487 9.9517 32.9862 10.3352 32.9862 10.7528C32.9862 11.1733 33.0487 11.5582 33.1737 11.9077C33.3015 12.2571 33.4961 12.5369 33.7575 12.7472C34.0217 12.9574 34.354 13.0625 34.7546 13.0625ZM43.37 11.2855V7.45455H44.6484V14H43.3956V12.8665H43.3274C43.1768 13.2159 42.9354 13.5071 42.603 13.7401C42.2734 13.9702 41.8629 14.0852 41.3714 14.0852C40.951 14.0852 40.5788 13.9929 40.255 13.8082C39.9339 13.6207 39.6811 13.3438 39.4964 12.9773C39.3146 12.6108 39.2237 12.1577 39.2237 11.6179V7.45455H40.4979V11.4645C40.4979 11.9105 40.6214 12.2656 40.8686 12.5298C41.1158 12.794 41.4368 12.9261 41.8317 12.9261C42.0703 12.9261 42.3075 12.8665 42.5433 12.7472C42.782 12.6278 42.9794 12.4474 43.1357 12.206C43.2947 11.9645 43.3729 11.6577 43.37 11.2855ZM49.4158 7.45455V8.47727H45.8406V7.45455H49.4158ZM46.7994 5.88636H48.0735V12.0781C48.0735 12.3253 48.1104 12.5114 48.1843 12.6364C48.2582 12.7585 48.3533 12.8423 48.4698 12.8878C48.5891 12.9304 48.7184 12.9517 48.8576 12.9517C48.9599 12.9517 49.0494 12.9446 49.1261 12.9304C49.2028 12.9162 49.2624 12.9048 49.305 12.8963L49.5352 13.9489C49.4613 13.9773 49.3562 14.0057 49.2198 14.0341C49.0835 14.0653 48.913 14.0824 48.7085 14.0852C48.3732 14.0909 48.0607 14.0312 47.771 13.9062C47.4812 13.7812 47.2468 13.5881 47.0678 13.3267C46.8888 13.0653 46.7994 12.7372 46.7994 12.3423V5.88636ZM54.9716 11.2855V7.45455H56.25V14H54.9972V12.8665H54.929C54.7784 13.2159 54.5369 13.5071 54.2045 13.7401C53.875 13.9702 53.4645 14.0852 52.973 14.0852C52.5526 14.0852 52.1804 13.9929 51.8565 13.8082C51.5355 13.6207 51.2827 13.3438 51.098 12.9773C50.9162 12.6108 50.8253 12.1577 50.8253 11.6179V7.45455H52.0994V11.4645C52.0994 11.9105 52.223 12.2656 52.4702 12.5298C52.7173 12.794 53.0384 12.9261 53.4332 12.9261C53.6719 12.9261 53.9091 12.8665 54.1449 12.7472C54.3835 12.6278 54.581 12.4474 54.7372 12.206C54.8963 11.9645 54.9744 11.6577 54.9716 11.2855ZM58.0643 14V5.27273H59.3384V8.51562H59.4151C59.489 8.37926 59.5955 8.22159 59.7347 8.04261C59.8739 7.86364 60.0671 7.70739 60.3143 7.57386C60.5614 7.4375 60.8881 7.36932 61.2944 7.36932C61.8228 7.36932 62.2944 7.50284 62.7092 7.76989C63.1239 8.03693 63.4492 8.42187 63.685 8.92472C63.9237 9.42756 64.043 10.0327 64.043 10.7401C64.043 11.4474 63.9251 12.054 63.6893 12.5597C63.4535 13.0625 63.1296 13.4503 62.7177 13.723C62.3058 13.9929 61.8356 14.1278 61.3072 14.1278C60.9094 14.1278 60.5842 14.0611 60.3313 13.9276C60.0813 13.794 59.8853 13.6378 59.7433 13.4588C59.6012 13.2798 59.4918 13.1207 59.4151 12.9815H59.3086V14H58.0643ZM59.3129 10.7273C59.3129 11.1875 59.3796 11.5909 59.5131 11.9375C59.6467 12.2841 59.8398 12.5554 60.0927 12.7514C60.3455 12.9446 60.6552 13.0412 61.0217 13.0412C61.4023 13.0412 61.7205 12.9403 61.9762 12.7386C62.2319 12.5341 62.4251 12.2571 62.5558 11.9077C62.6893 11.5582 62.756 11.1648 62.756 10.7273C62.756 10.2955 62.6907 9.90767 62.56 9.56392C62.4322 9.22017 62.239 8.94886 61.9805 8.75C61.7248 8.55114 61.4052 8.4517 61.0217 8.4517C60.6523 8.4517 60.3398 8.54687 60.0842 8.73722C59.8313 8.92756 59.6396 9.19318 59.5089 9.53409C59.3782 9.875 59.3129 10.2727 59.3129 10.7273ZM68.2947 14.1321C67.6499 14.1321 67.0945 13.9943 66.6286 13.7188C66.1655 13.4403 65.8075 13.0497 65.5547 12.5469C65.3047 12.0412 65.1797 11.4489 65.1797 10.7699C65.1797 10.0994 65.3047 9.50852 65.5547 8.99716C65.8075 8.4858 66.1598 8.08665 66.6115 7.79972C67.0661 7.51278 67.5973 7.36932 68.2053 7.36932C68.5746 7.36932 68.9325 7.4304 69.2791 7.55256C69.6257 7.67472 69.9368 7.86648 70.2124 8.12784C70.4879 8.3892 70.7053 8.72869 70.8643 9.14631C71.0234 9.56108 71.103 10.0653 71.103 10.6591V11.1108H65.8999V10.1562H69.8544C69.8544 9.82102 69.7862 9.52415 69.6499 9.26562C69.5135 9.00426 69.3217 8.7983 69.0746 8.64773C68.8303 8.49716 68.5433 8.42188 68.2138 8.42188C67.8558 8.42188 67.5433 8.50994 67.2763 8.68608C67.0121 8.85937 66.8075 9.08665 66.6626 9.3679C66.5206 9.64631 66.4496 9.94886 66.4496 10.2756V11.0213C66.4496 11.4588 66.5263 11.831 66.6797 12.1378C66.8359 12.4446 67.0533 12.679 67.3317 12.8409C67.6101 13 67.9354 13.0795 68.3075 13.0795C68.549 13.0795 68.7692 13.0455 68.968 12.9773C69.1669 12.9062 69.3388 12.8011 69.4837 12.6619C69.6286 12.5227 69.7393 12.3509 69.8161 12.1463L71.022 12.3636C70.9254 12.7187 70.7521 13.0298 70.5021 13.2969C70.255 13.5611 69.9439 13.767 69.5689 13.9148C69.1967 14.0597 68.772 14.1321 68.2947 14.1321Z" fill="white"/>
</svg>
