<svg width="16" height="16" viewBox="0 0 16 16" fill="none" xmlns="http://www.w3.org/2000/svg">
<path d="M8.46723 6.99991C8.46723 6.74218 8.25829 6.53324 8.00056 6.53324C7.74283 6.53324 7.5339 6.74218 7.5339 6.99991V8.53324H6.00056C5.74283 8.53324 5.5339 8.74218 5.5339 8.99991C5.5339 9.25764 5.74283 9.46658 6.00056 9.46658H7.5339V10.9999C7.5339 11.2576 7.74283 11.4666 8.00056 11.4666C8.25829 11.4666 8.46723 11.2576 8.46723 10.9999V9.46658H10.0006C10.2583 9.46658 10.4672 9.25764 10.4672 8.99991C10.4672 8.74218 10.2583 8.53324 10.0006 8.53324H8.46723V6.99991Z" fill="white"/>
<path fill-rule="evenodd" clip-rule="evenodd" d="M8.11801 3.66812L8.91698 4.86658H12.0006C12.9947 4.86658 13.8006 5.67246 13.8006 6.66658V11.3332C13.8006 12.3274 12.9947 13.1332 12.0006 13.1332H4.00056C3.00645 13.1332 2.20056 12.3274 2.20056 11.3332V4.66658C2.20056 3.67246 3.00645 2.86658 4.00056 2.86658H6.62032C7.22215 2.86658 7.78417 3.16736 8.11801 3.66812ZM3.13389 4.66658C3.13389 4.18793 3.52191 3.79991 4.00056 3.79991H6.62032C6.91009 3.79991 7.18069 3.94473 7.34143 4.18584L7.79525 4.86658H3.13389V4.66658ZM3.13389 11.3332V5.79991H12.0006C12.4792 5.79991 12.8672 6.18793 12.8672 6.66658V11.3332C12.8672 11.8119 12.4792 12.1999 12.0006 12.1999H4.00056C3.52191 12.1999 3.13389 11.8119 3.13389 11.3332Z" fill="white"/>
</svg>
