<svg width="16" height="16" viewBox="0 0 16 16" fill="none" xmlns="http://www.w3.org/2000/svg">
<path d="M7.99992 1.33313C4.31837 1.33313 1.33325 4.31825 1.33325 7.9998C1.33325 11.6813 4.31837 14.6665 7.99992 14.6665C11.6815 14.6665 14.6666 11.6813 14.6666 7.9998C14.6666 4.31825 11.6815 1.33313 7.99992 1.33313ZM7.99992 13.5355C4.94337 13.5355 2.4642 11.0563 2.4642 7.9998C2.4642 6.67539 2.92998 5.45813 3.70676 4.50575L11.494 12.293C10.5416 13.0697 9.32432 13.5355 7.99992 13.5355ZM12.2931 11.4938L4.50587 3.70664C5.45825 2.92986 6.67551 2.46408 7.99992 2.46408C11.0565 2.46408 13.5356 4.94325 13.5356 7.9998C13.5356 9.3242 13.0699 10.5415 12.2931 11.4938Z" fill="#FF4D4F"/>
</svg>
