<svg width="16" height="16" viewBox="0 0 16 16" fill="none" xmlns="http://www.w3.org/2000/svg">
<path d="M8.34125 6.27911C8.15272 6.09058 7.84705 6.09058 7.65852 6.27911C7.46998 6.46764 7.46998 6.77331 7.65852 6.96185L8.69649 7.99982L7.65852 9.03779C7.46998 9.22632 7.46998 9.53199 7.65852 9.72053C7.84705 9.90906 8.15272 9.90906 8.34125 9.72053L9.37922 8.68256L10.4172 9.72053C10.6057 9.90906 10.9114 9.90906 11.0999 9.72053C11.2885 9.53199 11.2885 9.22632 11.0999 9.03779L10.062 7.99982L11.0999 6.96185C11.2885 6.77331 11.2885 6.46764 11.0999 6.27911C10.9114 6.09058 10.6057 6.09058 10.4172 6.27911L9.37922 7.31708L8.34125 6.27911Z" fill="white"/>
<path fill-rule="evenodd" clip-rule="evenodd" d="M6.57692 3.37903C6.02429 3.37903 5.5002 3.6245 5.14641 4.04904L2.11165 7.69076C1.96246 7.86979 1.96246 8.12985 2.11165 8.30888L5.14641 11.9506C5.5002 12.3751 6.02429 12.6206 6.57692 12.6206H12.1379C13.1663 12.6206 14 11.7869 14 10.7585V5.24114C14 4.21272 13.1663 3.37903 12.1379 3.37903H6.57692ZM5.88816 4.66717C6.0585 4.46275 6.31084 4.34457 6.57692 4.34457H12.1379C12.6331 4.34457 13.0345 4.74597 13.0345 5.24114V10.7585C13.0345 11.2537 12.6331 11.6551 12.1379 11.6551H6.57692C6.31084 11.6551 6.0585 11.5369 5.88816 11.3325L3.11095 7.99982L5.88816 4.66717Z" fill="white"/>
</svg>
