<svg width="20" height="20" viewBox="0 0 20 20" fill="none" xmlns="http://www.w3.org/2000/svg">
<path d="M17.5 15C17.5 16.3807 16.3807 17.4999 15 17.5H5C3.61929 17.5 2.5 16.3807 2.5 15L2.5 12.5C2.50001 12.0398 2.8731 11.6667 3.33333 11.6667C3.79352 11.6667 4.16666 12.0398 4.16667 12.5L4.16667 15C4.16667 15.4602 4.53976 15.8333 5 15.8333H15C15.4602 15.8333 15.8333 15.4602 15.8333 15V12.5C15.8333 12.0398 16.2064 11.6667 16.6667 11.6667C17.1269 11.6667 17.5 12.0398 17.5 12.5V15Z" fill="white"/>
<path d="M13.9225 8.57747C14.2479 8.90287 14.2478 9.43041 13.9225 9.75586L10.5892 13.0892L10.5257 13.1462C10.1984 13.4131 9.7159 13.3943 9.41081 13.0892L6.07747 9.75586C5.75209 9.43041 5.75205 8.9029 6.07747 8.57747C6.40291 8.25219 6.93047 8.25212 7.25586 8.57747L9.16667 10.4883L9.16667 3.33333C9.16673 2.87314 9.5398 2.5 10 2.5C10.4602 2.50005 10.8333 2.87317 10.8333 3.33333L10.8333 10.4883L12.7441 8.57747C13.0696 8.25219 13.5971 8.25212 13.9225 8.57747Z" fill="white"/>
</svg>
