<svg width="20" height="20" viewBox="0 0 20 20" fill="none" xmlns="http://www.w3.org/2000/svg">
<path fill-rule="evenodd" clip-rule="evenodd" d="M6.66736 3.91654C6.06905 3.91654 5.58403 4.40157 5.58403 4.99988V14.9999C5.58403 15.5982 6.06905 16.0832 6.66736 16.0832H10.834C11.1562 16.0832 11.4174 16.3444 11.4174 16.6665C11.4174 16.9887 11.1562 17.2499 10.834 17.2499H6.66736C5.42472 17.2499 4.41736 16.2425 4.41736 14.9999V4.99988C4.41736 3.75724 5.42472 2.74988 6.66736 2.74988H10.0007C10.689 2.74988 11.3491 3.0233 11.8358 3.50999L14.8239 6.49814C15.3106 6.98483 15.584 7.64493 15.584 8.33321V10.8332C15.584 11.1554 15.3229 11.4165 15.0007 11.4165C14.6785 11.4165 14.4174 11.1554 14.4174 10.8332V8.91654H10.834C10.0516 8.91654 9.41736 8.28228 9.41736 7.49988V3.91654H6.66736ZM10.584 4.04107V7.49988C10.584 7.63795 10.696 7.74988 10.834 7.74988H14.2928C14.2224 7.59238 14.1233 7.44746 13.999 7.3231L11.0108 4.33495C10.8864 4.21059 10.7415 4.11153 10.584 4.04107Z" fill="#0D9585"/>
<path d="M14.7507 12.4999C14.7507 12.1777 14.4895 11.9165 14.1674 11.9165C13.8452 11.9165 13.584 12.1777 13.584 12.4999V15.2583L12.9132 14.5874C12.6854 14.3596 12.316 14.3596 12.0882 14.5874C11.8604 14.8152 11.8604 15.1846 12.0882 15.4124L13.7549 17.079C13.9827 17.3068 14.352 17.3068 14.5798 17.079L16.2465 15.4124C16.4743 15.1846 16.4743 14.8152 16.2465 14.5874C16.0187 14.3596 15.6494 14.3596 15.4215 14.5874L14.7507 15.2583V12.4999Z" fill="#0D9585"/>
</svg>
