<svg width="16" height="16" viewBox="0 0 16 16" fill="none" xmlns="http://www.w3.org/2000/svg">
<path d="M7.51943 2.62209C7.51943 2.27852 7.79795 2 8.14152 2C8.4851 2 8.76362 2.27852 8.76362 2.62209V4.03733C8.76362 4.3809 8.4851 4.65943 8.14152 4.65943C7.79795 4.65943 7.51943 4.3809 7.51943 4.03733V2.62209Z" fill="#1A1A1A" fill-opacity="0.4"/>
<path d="M3.81181 3.8571C4.05476 3.61416 4.44864 3.61416 4.69159 3.8571L5.89246 5.05797C6.1354 5.30091 6.1354 5.6948 5.89246 5.93775C5.64952 6.18069 5.25563 6.18069 5.01268 5.93775L3.81181 4.73688C3.56887 4.49393 3.56887 4.10004 3.81181 3.8571Z" fill="#1A1A1A" fill-opacity="0.4"/>
<path d="M11.4742 3.97434C11.7172 3.7314 12.111 3.7314 12.354 3.97434C12.5969 4.21729 12.5969 4.61117 12.354 4.85412L11.5534 5.6547C11.3105 5.89764 10.9166 5.89764 10.6736 5.6547C10.4307 5.41175 10.4307 5.01787 10.6736 4.77492L11.4742 3.97434Z" fill="#1A1A1A" fill-opacity="0.4"/>
<path d="M2 8.14152C2 7.79795 2.27852 7.51943 2.62209 7.51943H4.60343C4.947 7.51943 5.22552 7.79795 5.22552 8.14152C5.22552 8.4851 4.947 8.76362 4.60343 8.76362H2.62209C2.27852 8.76362 2 8.4851 2 8.14152Z" fill="#1A1A1A" fill-opacity="0.4"/>
<path d="M11.9067 8.14152C11.9067 7.79795 12.1852 7.51943 12.5288 7.51943H13.3779C13.7215 7.51943 14 7.79795 14 8.14152C14 8.4851 13.7215 8.76362 13.3779 8.76362H12.5288C12.1852 8.76362 11.9067 8.4851 11.9067 8.14152Z" fill="#1A1A1A" fill-opacity="0.4"/>
<path d="M5.29573 10.1075C5.53868 9.8646 5.93256 9.8646 6.17551 10.1075C6.41845 10.3505 6.41845 10.7444 6.17551 10.9873L4.57435 12.5885C4.3314 12.8314 3.93752 12.8314 3.69457 12.5885C3.45163 12.3455 3.45163 11.9516 3.69457 11.7087L5.29573 10.1075Z" fill="#1A1A1A" fill-opacity="0.4"/>
<path d="M10.9567 10.9567C11.1996 10.7137 11.5935 10.7137 11.8365 10.9567L12.2368 11.357C12.4797 11.5999 12.4797 11.9938 12.2368 12.2368C11.9938 12.4797 11.5999 12.4797 11.357 12.2368L10.9567 11.8365C10.7137 11.5935 10.7137 11.1996 10.9567 10.9567Z" fill="#1A1A1A" fill-opacity="0.4"/>
<path d="M7.51943 11.5381C7.51943 11.1945 7.79795 10.916 8.14152 10.916C8.4851 10.916 8.76362 11.1945 8.76362 11.5381V13.8025C8.76362 14.1461 8.4851 14.4246 8.14152 14.4246C7.79795 14.4246 7.51943 14.1461 7.51943 13.8025V11.5381Z" fill="#1A1A1A" fill-opacity="0.4"/>
</svg>
