<svg width="20" height="20" viewBox="0 0 20 20" fill="none" xmlns="http://www.w3.org/2000/svg">
<path fill-rule="evenodd" clip-rule="evenodd" d="M10.0322 12.317L7.42807 14.9211C6.77276 15.5535 5.73432 15.5535 5.07901 14.9211C4.76671 14.61 4.59115 14.1873 4.59115 13.7465C4.59115 13.3057 4.76671 12.8831 5.07901 12.572L7.68311 9.96792C7.94628 9.70474 7.94628 9.27805 7.68311 9.01487C7.41993 8.7517 6.99324 8.7517 6.73006 9.01487L4.12597 11.6257C3.03598 12.8121 3.07482 14.6468 4.21405 15.786C5.35327 16.9253 7.18798 16.9641 8.3744 15.8741L10.9852 13.27C11.2484 13.0068 11.2484 12.5801 10.9852 12.317C10.722 12.0538 10.2953 12.0538 10.0322 12.317ZM15.7907 4.20938C14.6154 3.04137 12.7176 3.04137 11.5423 4.20938L8.93146 6.81347C8.76122 6.98372 8.69473 7.23186 8.75704 7.46442C8.81936 7.69697 9.00101 7.87862 9.23357 7.94094C9.46613 8.00325 9.71426 7.93676 9.88451 7.76652L12.4886 5.16242C13.1439 4.52997 14.1823 4.52997 14.8377 5.16242C15.15 5.4735 15.3255 5.89615 15.3255 6.33695C15.3255 6.77775 15.15 7.2004 14.8377 7.51148L12.2336 10.1156C12.1065 10.2416 12.035 10.4131 12.035 10.5921C12.035 10.7711 12.1065 10.9426 12.2336 11.0686C12.3596 11.1957 12.5311 11.2671 12.7101 11.2671C12.889 11.2671 13.0606 11.1957 13.1866 11.0686L15.7907 8.45781C16.9587 7.2825 16.9587 5.38469 15.7907 4.20938ZM7.83076 12.1693C7.95742 12.295 8.12889 12.365 8.30729 12.364C8.48568 12.365 8.65715 12.295 8.78381 12.1693L12.0859 8.86722C12.3491 8.60404 12.3491 8.17735 12.0859 7.91417C11.8227 7.651 11.396 7.651 11.1329 7.91417L7.83076 11.2163C7.7037 11.3423 7.63224 11.5138 7.63224 11.6928C7.63224 11.8718 7.7037 12.0433 7.83076 12.1693Z" fill="#1A1A1A" fill-opacity="0.56"/>
</svg>
