<svg width="20" height="20" viewBox="0 0 20 20" fill="none" xmlns="http://www.w3.org/2000/svg">
<path fill-rule="evenodd" clip-rule="evenodd" d="M5 4.75004C4.40169 4.75004 3.91667 5.23507 3.91667 5.83337V6.08337H9.74336L9.17608 5.23245C8.97516 4.93107 8.63691 4.75004 8.27469 4.75004H5ZM11.1455 6.08337L10.1468 4.5853C9.72951 3.95935 9.02699 3.58337 8.27469 3.58337H5C3.75736 3.58337 2.75 4.59073 2.75 5.83337V14.1667C2.75 15.4093 3.75736 16.4167 5 16.4167H15C16.2426 16.4167 17.25 15.4093 17.25 14.1667V8.33337C17.25 7.09073 16.2426 6.08337 15 6.08337H11.1455ZM3.91667 7.25004V14.1667C3.91667 14.765 4.40169 15.25 5 15.25H15C15.5983 15.25 16.0833 14.765 16.0833 14.1667V8.33337C16.0833 7.73507 15.5983 7.25004 15 7.25004H3.91667Z" fill="white"/>
</svg>
