<svg width="16" height="16" viewBox="0 0 16 16" fill="none" xmlns="http://www.w3.org/2000/svg">
<path fill-rule="evenodd" clip-rule="evenodd" d="M6.20126 2.00085C5.63833 2.00085 5.18199 2.4572 5.18199 3.02013V3.38327H4.22337C3.66045 3.38327 3.2041 3.83961 3.2041 4.40254V12.9816C3.2041 13.5445 3.66045 14.0009 4.22338 14.0009H11.7775C12.3404 14.0009 12.7967 13.5445 12.7967 12.9816V4.40254C12.7967 3.83961 12.3404 3.38327 11.7775 3.38327H10.818V3.02013C10.818 2.4572 10.3616 2.00085 9.7987 2.00085H6.20126ZM10.818 4.22267V4.58581C10.818 5.14874 10.3616 5.60508 9.7987 5.60508H6.20126C5.63833 5.60508 5.18199 5.14874 5.18199 4.58581V4.22267H4.22337C4.12403 4.22267 4.0435 4.3032 4.0435 4.40254V12.9816C4.0435 13.0809 4.12403 13.1615 4.22338 13.1615H11.7775C11.8768 13.1615 11.9573 13.0809 11.9573 12.9816V4.40254C11.9573 4.3032 11.8768 4.22267 11.7775 4.22267H10.818ZM6.02139 3.02013C6.02139 2.92079 6.10192 2.84026 6.20126 2.84026H9.7987C9.89804 2.84026 9.97857 2.92079 9.97857 3.02013V4.58581C9.97857 4.68515 9.89804 4.76568 9.7987 4.76568H6.20126C6.10192 4.76568 6.02139 4.68515 6.02139 4.58581V3.02013Z" fill="white"/>
</svg>
