<svg width="24" height="24" viewBox="0 0 24 24" fill="none" xmlns="http://www.w3.org/2000/svg">
<path fill-rule="evenodd" clip-rule="evenodd" d="M11.1 3.2998C11.3209 3.2998 11.5 3.47889 11.5 3.6998V8C11.5 9.38071 12.6193 10.5 14 10.5H18.3008C18.5217 10.5 18.7008 10.6791 18.7008 10.9V17.9998C18.7008 19.491 17.492 20.6998 16.0008 20.6998H8.00078C6.50961 20.6998 5.30078 19.491 5.30078 17.9998V5.9998C5.30078 4.50864 6.50961 3.2998 8.00078 3.2998H11.1ZM15.4958 13.4948C15.7691 13.2214 15.7691 12.7782 15.4958 12.5048C15.2224 12.2315 14.7792 12.2315 14.5058 12.5048L11.0008 16.0099L9.49576 14.5048C9.22239 14.2315 8.77917 14.2315 8.50581 14.5048C8.23244 14.7782 8.23244 15.2214 8.50581 15.4948L10.5058 17.4948C10.7792 17.7681 11.2224 17.7681 11.4958 17.4948L15.4958 13.4948Z" fill="#0D9585"/>
<path d="M18.7008 9.1C18.7008 9.32091 18.5217 9.5 18.3008 9.5H14C13.1716 9.5 12.5 8.82843 12.5 8V3.6998C12.5 3.47889 12.6791 3.2998 12.9 3.2998H13.0008C13.1864 3.2998 13.3645 3.37355 13.4958 3.50483L18.4958 8.50483C18.627 8.63611 18.7008 8.81415 18.7008 8.9998V9.1Z" fill="#0D9585"/>
</svg>
